<svg height="10318" width="720" xmlns="http://www.w3.org/2000/svg">
<rect height="10318" fill="#555" width="720"></rect>
<text fill="#7f7" font-family="Courier New" font-size="12" xml:space="preserve">
<tspan x="10" y="26">102 megabytes installed</tspan>
<tspan x="10" y="42"></tspan>
<tspan x="10" y="58">node_modules</tspan>
<tspan x="10" y="74">└─┬ local-npm@1.6.0 </tspan>
<tspan x="10" y="90">  ├── bluebird@2.11.0 </tspan>
<tspan x="10" y="106">  ├── colors@0.6.2 </tspan>
<tspan x="10" y="122">  ├─┬ compression@1.6.2 </tspan>
<tspan x="10" y="138">  │ ├─┬ accepts@1.3.3 </tspan>
<tspan x="10" y="154">  │ │ └── negotiator@0.6.1 </tspan>
<tspan x="10" y="170">  │ ├── bytes@2.3.0 </tspan>
<tspan x="10" y="186">  │ ├─┬ compressible@2.0.10 </tspan>
<tspan x="10" y="202">  │ │ └── mime-db@1.27.0 </tspan>
<tspan x="10" y="218">  │ ├─┬ debug@2.2.0 </tspan>
<tspan x="10" y="234">  │ │ └── ms@0.7.1 </tspan>
<tspan x="10" y="250">  │ ├── on-headers@1.0.1 </tspan>
<tspan x="10" y="266">  │ └── vary@1.1.1 </tspan>
<tspan x="10" y="282">  ├── corser@2.0.1 </tspan>
<tspan x="10" y="298">  ├─┬ express@4.15.2 </tspan>
<tspan x="10" y="314">  │ ├── array-flatten@1.1.1 </tspan>
<tspan x="10" y="330">  │ ├── content-disposition@0.5.2 </tspan>
<tspan x="10" y="346">  │ ├── content-type@1.0.2 </tspan>
<tspan x="10" y="362">  │ ├── cookie@0.3.1 </tspan>
<tspan x="10" y="378">  │ ├── cookie-signature@1.0.6 </tspan>
<tspan x="10" y="394">  │ ├─┬ debug@2.6.1 </tspan>
<tspan x="10" y="410">  │ │ └── ms@0.7.2 </tspan>
<tspan x="10" y="426">  │ ├── depd@1.1.0 </tspan>
<tspan x="10" y="442">  │ ├── encodeurl@1.0.1 </tspan>
<tspan x="10" y="458">  │ ├── escape-html@1.0.3 </tspan>
<tspan x="10" y="474">  │ ├── etag@1.8.0 </tspan>
<tspan x="10" y="490">  │ ├─┬ finalhandler@1.0.1 </tspan>
<tspan x="10" y="506">  │ │ ├─┬ debug@2.6.3 </tspan>
<tspan x="10" y="522">  │ │ │ └── ms@0.7.2 </tspan>
<tspan x="10" y="538">  │ │ └── unpipe@1.0.0 </tspan>
<tspan x="10" y="554">  │ ├── fresh@0.5.0 </tspan>
<tspan x="10" y="570">  │ ├── merge-descriptors@1.0.1 </tspan>
<tspan x="10" y="586">  │ ├── methods@1.1.2 </tspan>
<tspan x="10" y="602">  │ ├─┬ on-finished@2.3.0 </tspan>
<tspan x="10" y="618">  │ │ └── ee-first@1.1.1 </tspan>
<tspan x="10" y="634">  │ ├── parseurl@1.3.1 </tspan>
<tspan x="10" y="650">  │ ├── path-to-regexp@0.1.7 </tspan>
<tspan x="10" y="666">  │ ├─┬ proxy-addr@1.1.4 </tspan>
<tspan x="10" y="682">  │ │ ├── forwarded@0.1.0 </tspan>
<tspan x="10" y="698">  │ │ └── ipaddr.js@1.3.0 </tspan>
<tspan x="10" y="714">  │ ├── qs@6.4.0 </tspan>
<tspan x="10" y="730">  │ ├── range-parser@1.2.0 </tspan>
<tspan x="10" y="746">  │ ├─┬ send@0.15.1 </tspan>
<tspan x="10" y="762">  │ │ ├── debug@2.6.1 </tspan>
<tspan x="10" y="778">  │ │ ├── destroy@1.0.4 </tspan>
<tspan x="10" y="794">  │ │ ├── http-errors@1.6.1 </tspan>
<tspan x="10" y="810">  │ │ ├── mime@1.3.4 </tspan>
<tspan x="10" y="826">  │ │ └── ms@0.7.2 </tspan>
<tspan x="10" y="842">  │ ├── serve-static@1.12.1 </tspan>
<tspan x="10" y="858">  │ ├── setprototypeof@1.0.3 </tspan>
<tspan x="10" y="874">  │ ├── statuses@1.3.1 </tspan>
<tspan x="10" y="890">  │ ├─┬ type-is@1.6.15 </tspan>
<tspan x="10" y="906">  │ │ └── media-typer@0.3.0 </tspan>
<tspan x="10" y="922">  │ └── utils-merge@1.0.0 </tspan>
<tspan x="10" y="938">  ├─┬ express-http-proxy@0.6.0 </tspan>
<tspan x="10" y="954">  │ └─┬ raw-body@1.3.4 </tspan>
<tspan x="10" y="970">  │   ├── bytes@1.0.0 </tspan>
<tspan x="10" y="986">  │   └── iconv-lite@0.4.8 </tspan>
<tspan x="10" y="1002">  ├─┬ express-pouchdb@1.0.7 </tspan>
<tspan x="10" y="1018">  │ ├── basic-auth@1.0.4 </tspan>
<tspan x="10" y="1034">  │ ├── bluebird@3.4.1 </tspan>
<tspan x="10" y="1050">  │ ├─┬ body-parser@1.15.2 </tspan>
<tspan x="10" y="1066">  │ │ ├── bytes@2.4.0 </tspan>
<tspan x="10" y="1082">  │ │ ├─┬ http-errors@1.5.1 </tspan>
<tspan x="10" y="1098">  │ │ │ └── setprototypeof@1.0.2 </tspan>
<tspan x="10" y="1114">  │ │ ├── iconv-lite@0.4.13 </tspan>
<tspan x="10" y="1130">  │ │ ├── qs@6.2.0 </tspan>
<tspan x="10" y="1146">  │ │ └── raw-body@2.1.7 </tspan>
<tspan x="10" y="1162">  │ ├─┬ cookie-parser@1.4.1 </tspan>
<tspan x="10" y="1178">  │ │ └── cookie@0.2.3 </tspan>
<tspan x="10" y="1194">  │ ├── extend@1.3.0 </tspan>
<tspan x="10" y="1210">  │ ├── header-case-normalizer@1.0.3 </tspan>
<tspan x="10" y="1226">  │ ├─┬ multiparty@3.3.2 </tspan>
<tspan x="10" y="1242">  │ │ ├─┬ readable-stream@1.1.14 </tspan>
<tspan x="10" y="1258">  │ │ │ ├── isarray@0.0.1 </tspan>
<tspan x="10" y="1274">  │ │ │ └── string_decoder@0.10.31 </tspan>
<tspan x="10" y="1290">  │ │ └── stream-counter@0.2.0 </tspan>
<tspan x="10" y="1306">  │ ├── node-uuid@1.4.7 </tspan>
<tspan x="10" y="1322">  │ ├─┬ pouchdb-all-dbs@1.0.2 </tspan>
<tspan x="10" y="1338">  │ │ ├─┬ es3ify@0.1.4 </tspan>
<tspan x="10" y="1354">  │ │ │ ├── esprima-fb@3001.1.0-dev-harmony-fb </tspan>
<tspan x="10" y="1370">  │ │ │ ├─┬ jstransform@3.0.0 </tspan>
<tspan x="10" y="1386">  │ │ │ │ ├── base62@0.1.1 </tspan>
<tspan x="10" y="1402">  │ │ │ │ └─┬ source-map@0.1.31 </tspan>
<tspan x="10" y="1418">  │ │ │ │   └── amdefine@1.0.1 </tspan>
<tspan x="10" y="1434">  │ │ │ └── through@2.3.8 </tspan>
<tspan x="10" y="1450">  │ │ ├── inherits@2.0.3 </tspan>
<tspan x="10" y="1466">  │ │ ├── pouchdb-promise@5.4.3 </tspan>
<tspan x="10" y="1482">  │ │ └── tiny-queue@0.2.1 </tspan>
<tspan x="10" y="1498">  │ ├─┬ pouchdb-auth@2.1.1 </tspan>
<tspan x="10" y="1514">  │ │ ├─┬ base64url@1.0.6 </tspan>
<tspan x="10" y="1530">  │ │ │ ├─┬ concat-stream@1.4.10 </tspan>
<tspan x="10" y="1546">  │ │ │ │ └── typedarray@0.0.6 </tspan>
<tspan x="10" y="1562">  │ │ │ └─┬ meow@2.0.0 </tspan>
<tspan x="10" y="1578">  │ │ │   ├─┬ camelcase-keys@1.0.0 </tspan>
<tspan x="10" y="1594">  │ │ │   │ ├── camelcase@1.2.1 </tspan>
<tspan x="10" y="1610">  │ │ │   │ └── map-obj@1.0.1 </tspan>
<tspan x="10" y="1626">  │ │ │   ├─┬ indent-string@1.2.2 </tspan>
<tspan x="10" y="1642">  │ │ │   │ ├── get-stdin@4.0.1 </tspan>
<tspan x="10" y="1658">  │ │ │   │ ├── minimist@1.2.0 </tspan>
<tspan x="10" y="1674">  │ │ │   │ └─┬ repeating@1.1.3 </tspan>
<tspan x="10" y="1690">  │ │ │   │   └── is-finite@1.0.2 </tspan>
<tspan x="10" y="1706">  │ │ │   ├── minimist@1.2.0 </tspan>
<tspan x="10" y="1722">  │ │ │   └── object-assign@1.0.0 </tspan>
<tspan x="10" y="1738">  │ │ ├─┬ couchdb-calculate-session-id@1.1.2 </tspan>
<tspan x="10" y="1754">  │ │ │ ├── aproba@1.1.1 </tspan>
<tspan x="10" y="1770">  │ │ │ ├── base64url@2.0.0 </tspan>
<tspan x="10" y="1786">  │ │ │ └── crypto-lite@0.2.0 </tspan>
<tspan x="10" y="1802">  │ │ ├── crypto-lite@0.1.0 </tspan>
<tspan x="10" y="1818">  │ │ ├─┬ pouchdb-bulkdocs-wrapper@1.0.2 </tspan>
<tspan x="10" y="1834">  │ │ │ └─┬ pouchdb-promise@0.0.0 </tspan>
<tspan x="10" y="1850">  │ │ │   ├── bluebird@1.2.4 </tspan>
<tspan x="10" y="1866">  │ │ │   └── lie@2.7.7 </tspan>
<tspan x="10" y="1882">  │ │ ├── pouchdb-plugin-error@1.0.1 </tspan>
<tspan x="10" y="1898">  │ │ ├─┬ pouchdb-req-http-query@1.0.3 </tspan>
<tspan x="10" y="1914">  │ │ │ ├─┬ pouchdb-promise@0.0.0 </tspan>
<tspan x="10" y="1930">  │ │ │ │ ├── bluebird@1.2.4 </tspan>
<tspan x="10" y="1946">  │ │ │ │ └── lie@2.7.7 </tspan>
<tspan x="10" y="1962">  │ │ │ └─┬ xmlhttprequest-cookie@0.9.4 </tspan>
<tspan x="10" y="1978">  │ │ │   └── xmlhttprequest@1.8.0 </tspan>
<tspan x="10" y="1994">  │ │ ├── pouchdb-system-db@1.0.4 </tspan>
<tspan x="10" y="2010">  │ │ ├── promise-nodify@1.0.2 </tspan>
<tspan x="10" y="2026">  │ │ └── secure-random@1.1.1 </tspan>
<tspan x="10" y="2042">  │ ├─┬ pouchdb-find@0.10.2 </tspan>
<tspan x="10" y="2058">  │ │ ├── is-array@1.0.1 </tspan>
<tspan x="10" y="2074">  │ │ ├─┬ lie@2.9.1 </tspan>
<tspan x="10" y="2090">  │ │ │ └─┬ unreachable-branch-transform@0.2.3 </tspan>
<tspan x="10" y="2106">  │ │ │   ├─┬ recast@0.10.43 </tspan>
<tspan x="10" y="2122">  │ │ │   │ ├── ast-types@0.8.15 </tspan>
<tspan x="10" y="2138">  │ │ │   │ ├── esprima-fb@15001.1001.0-dev-harmony-fb </tspan>
<tspan x="10" y="2154">  │ │ │   │ └── source-map@0.5.6 </tspan>
<tspan x="10" y="2170">  │ │ │   └─┬ through2@0.6.5 </tspan>
<tspan x="10" y="2186">  │ │ │     └── readable-stream@1.0.34 </tspan>
<tspan x="10" y="2202">  │ │ ├── pouchdb-extend@0.1.2 </tspan>
<tspan x="10" y="2218">  │ │ ├─┬ pouchdb-promise@5.4.0 </tspan>
<tspan x="10" y="2234">  │ │ │ └─┬ lie@3.0.4 </tspan>
<tspan x="10" y="2250">  │ │ │   ├─┬ es3ify@0.2.2 </tspan>
<tspan x="10" y="2266">  │ │ │   │ ├── esprima@2.7.3 </tspan>
<tspan x="10" y="2282">  │ │ │   │ └─┬ jstransform@11.0.3 </tspan>
<tspan x="10" y="2298">  │ │ │   │   ├── base62@1.1.2 </tspan>
<tspan x="10" y="2314">  │ │ │   │   ├── esprima-fb@15001.1.0-dev-harmony-fb </tspan>
<tspan x="10" y="2330">  │ │ │   │   └── source-map@0.4.4 </tspan>
<tspan x="10" y="2346">  │ │ │   └── unreachable-branch-transform@0.3.0 </tspan>
<tspan x="10" y="2362">  │ │ ├── pouchdb-upsert@2.0.2 </tspan>
<tspan x="10" y="2378">  │ │ └── spark-md5@0.0.5 </tspan>
<tspan x="10" y="2394">  │ ├─┬ pouchdb-list@1.1.0 </tspan>
<tspan x="10" y="2410">  │ │ ├─┬ couchdb-objects@1.0.7 </tspan>
<tspan x="10" y="2426">  │ │ │ ├── is-empty@0.0.1 </tspan>
<tspan x="10" y="2442">  │ │ │ └─┬ pouchdb-promise@0.0.0 </tspan>
<tspan x="10" y="2458">  │ │ │   ├── bluebird@1.2.4 </tspan>
<tspan x="10" y="2474">  │ │ │   └── lie@2.7.7 </tspan>
<tspan x="10" y="2490">  │ │ ├── couchdb-render@1.0.1 </tspan>
<tspan x="10" y="2506">  │ │ ├── extend@3.0.0 </tspan>
<tspan x="10" y="2522">  │ │ └─┬ pouchdb-promise@0.0.0 </tspan>
<tspan x="10" y="2538">  │ │   ├── bluebird@1.2.4 </tspan>
<tspan x="10" y="2554">  │ │   └── lie@2.7.7 </tspan>
<tspan x="10" y="2570">  │ ├─┬ pouchdb-replicator@2.1.3 </tspan>
<tspan x="10" y="2586">  │ │ ├─┬ equals@1.0.5 </tspan>
<tspan x="10" y="2602">  │ │ │ └── jkroso-type@1.1.1 </tspan>
<tspan x="10" y="2618">  │ │ ├─┬ pouchdb-promise@0.0.0 </tspan>
<tspan x="10" y="2634">  │ │ │ ├── bluebird@1.2.4 </tspan>
<tspan x="10" y="2650">  │ │ │ └── lie@2.7.7 </tspan>
<tspan x="10" y="2666">  │ │ └── random-uuid-v4@0.0.4 </tspan>
<tspan x="10" y="2682">  │ ├─┬ pouchdb-rewrite@1.0.7 </tspan>
<tspan x="10" y="2698">  │ │ └── pouchdb-route@1.0.3 </tspan>
<tspan x="10" y="2714">  │ ├─┬ pouchdb-security@1.2.6 </tspan>
<tspan x="10" y="2730">  │ │ ├── pouchdb-changeslike-wrapper@1.0.1 </tspan>
<tspan x="10" y="2746">  │ │ └─┬ pouchdb-promise@0.0.0 </tspan>
<tspan x="10" y="2762">  │ │   ├── bluebird@1.2.4 </tspan>
<tspan x="10" y="2778">  │ │   └── lie@2.7.7 </tspan>
<tspan x="10" y="2794">  │ ├─┬ pouchdb-show@1.0.8 </tspan>
<tspan x="10" y="2810">  │ │ └─┬ pouchdb-promise@0.0.0 </tspan>
<tspan x="10" y="2826">  │ │   ├── bluebird@1.2.4 </tspan>
<tspan x="10" y="2842">  │ │   └── lie@2.7.7 </tspan>
<tspan x="10" y="2858">  │ ├─┬ pouchdb-size@1.2.2 </tspan>
<tspan x="10" y="2874">  │ │ └─┬ get-folder-size@0.1.1 </tspan>
<tspan x="10" y="2890">  │ │   ├── async@0.9.2 </tspan>
<tspan x="10" y="2906">  │ │   └── minimist@0.1.0 </tspan>
<tspan x="10" y="2922">  │ ├─┬ pouchdb-update@1.0.8 </tspan>
<tspan x="10" y="2938">  │ │ ├── couchdb-eval@1.0.6 </tspan>
<tspan x="10" y="2954">  │ │ ├── couchdb-resp-completer@1.0.3 </tspan>
<tspan x="10" y="2970">  │ │ └─┬ pouchdb-promise@0.0.0 </tspan>
<tspan x="10" y="2986">  │ │   ├── bluebird@1.2.4 </tspan>
<tspan x="10" y="3002">  │ │   └── lie@2.7.7 </tspan>
<tspan x="10" y="3018">  │ ├─┬ pouchdb-validation@1.2.1 </tspan>
<tspan x="10" y="3034">  │ │ └─┬ pouchdb-promise@0.0.0 </tspan>
<tspan x="10" y="3050">  │ │   ├── bluebird@1.2.4 </tspan>
<tspan x="10" y="3066">  │ │   └── lie@2.7.7 </tspan>
<tspan x="10" y="3082">  │ ├── pouchdb-vhost@1.0.2 </tspan>
<tspan x="10" y="3098">  │ ├── pouchdb-wrappers@1.3.6 </tspan>
<tspan x="10" y="3114">  │ └─┬ raw-body@2.1.7 </tspan>
<tspan x="10" y="3130">  │   ├── bytes@2.4.0 </tspan>
<tspan x="10" y="3146">  │   └── iconv-lite@0.4.13 </tspan>
<tspan x="10" y="3162">  ├─┬ level@1.6.0 </tspan>
<tspan x="10" y="3178">  │ ├─┬ level-packager@1.2.1 </tspan>
<tspan x="10" y="3194">  │ │ └─┬ levelup@1.3.5 </tspan>
<tspan x="10" y="3210">  │ │   └── semver@5.1.1 </tspan>
<tspan x="10" y="3226">  │ └─┬ leveldown@1.6.0 </tspan>
<tspan x="10" y="3242">  │   ├── abstract-leveldown@2.6.1 </tspan>
<tspan x="10" y="3258">  │   ├── bindings@1.2.1 </tspan>
<tspan x="10" y="3274">  │   ├── fast-future@1.0.2 </tspan>
<tspan x="10" y="3290">  │   ├── nan@2.5.1 </tspan>
<tspan x="10" y="3306">  │   └─┬ prebuild-install@2.1.2 </tspan>
<tspan x="10" y="3322">  │     ├── expand-template@1.0.3 </tspan>
<tspan x="10" y="3338">  │     ├── github-from-package@0.0.0 </tspan>
<tspan x="10" y="3354">  │     ├── minimist@1.2.0 </tspan>
<tspan x="10" y="3370">  │     ├── node-abi@2.0.0 </tspan>
<tspan x="10" y="3386">  │     ├── noop-logger@0.1.1 </tspan>
<tspan x="10" y="3402">  │     ├─┬ npmlog@4.0.2 </tspan>
<tspan x="10" y="3418">  │     │ ├─┬ are-we-there-yet@1.1.4 </tspan>
<tspan x="10" y="3434">  │     │ │ ├── delegates@1.0.0 </tspan>
<tspan x="10" y="3450">  │     │ │ └─┬ readable-stream@2.2.9 </tspan>
<tspan x="10" y="3466">  │     │ │   ├── isarray@1.0.0 </tspan>
<tspan x="10" y="3482">  │     │ │   └── string_decoder@1.0.0 </tspan>
<tspan x="10" y="3498">  │     │ ├── console-control-strings@1.1.0 </tspan>
<tspan x="10" y="3514">  │     │ ├─┬ gauge@2.7.4 </tspan>
<tspan x="10" y="3530">  │     │ │ ├── has-unicode@2.0.1 </tspan>
<tspan x="10" y="3546">  │     │ │ ├── object-assign@4.1.1 </tspan>
<tspan x="10" y="3562">  │     │ │ ├── signal-exit@3.0.2 </tspan>
<tspan x="10" y="3578">  │     │ │ └── wide-align@1.1.0 </tspan>
<tspan x="10" y="3594">  │     │ └── set-blocking@2.0.0 </tspan>
<tspan x="10" y="3610">  │     ├── os-homedir@1.0.2 </tspan>
<tspan x="10" y="3626">  │     ├─┬ pump@1.0.2 </tspan>
<tspan x="10" y="3642">  │     │ ├── end-of-stream@1.4.0 </tspan>
<tspan x="10" y="3658">  │     │ └─┬ once@1.4.0 </tspan>
<tspan x="10" y="3674">  │     │   └── wrappy@1.0.2 </tspan>
<tspan x="10" y="3690">  │     ├─┬ rc@1.2.1 </tspan>
<tspan x="10" y="3706">  │     │ ├── deep-extend@0.4.1 </tspan>
<tspan x="10" y="3722">  │     │ ├── ini@1.3.4 </tspan>
<tspan x="10" y="3738">  │     │ ├── minimist@1.2.0 </tspan>
<tspan x="10" y="3754">  │     │ └── strip-json-comments@2.0.1 </tspan>
<tspan x="10" y="3770">  │     ├─┬ simple-get@1.4.3 </tspan>
<tspan x="10" y="3786">  │     │ └── unzip-response@1.0.2 </tspan>
<tspan x="10" y="3802">  │     └─┬ tar-fs@1.15.2 </tspan>
<tspan x="10" y="3818">  │       └── chownr@1.0.1 </tspan>
<tspan x="10" y="3834">  ├─┬ mkdirp@0.5.1 </tspan>
<tspan x="10" y="3850">  │ └── minimist@0.0.8 </tspan>
<tspan x="10" y="3866">  ├─┬ morgan@1.8.1 </tspan>
<tspan x="10" y="3882">  │ ├── basic-auth@1.1.0 </tspan>
<tspan x="10" y="3898">  │ └─┬ debug@2.6.1 </tspan>
<tspan x="10" y="3914">  │   └── ms@0.7.2 </tspan>
<tspan x="10" y="3930">  ├─┬ pouchdb@5.4.5 </tspan>
<tspan x="10" y="3946">  │ ├── argsarray@0.0.1 </tspan>
<tspan x="10" y="3962">  │ ├── double-ended-queue@2.0.0-0 </tspan>
<tspan x="10" y="3978">  │ ├── es6-promise-pool@2.4.2 </tspan>
<tspan x="10" y="3994">  │ ├─┬ fruitdown@1.0.2 </tspan>
<tspan x="10" y="4010">  │ │ ├─┬ abstract-leveldown@0.12.3 </tspan>
<tspan x="10" y="4026">  │ │ │ └── xtend@3.0.0 </tspan>
<tspan x="10" y="4042">  │ │ ├── d64@1.0.0 </tspan>
<tspan x="10" y="4058">  │ │ └── tiny-queue@0.2.0 </tspan>
<tspan x="10" y="4074">  │ ├── inherits@2.0.1 </tspan>
<tspan x="10" y="4090">  │ ├── js-extend@0.0.1 </tspan>
<tspan x="10" y="4106">  │ ├─┬ level-write-stream@1.0.0 </tspan>
<tspan x="10" y="4122">  │ │ └─┬ end-stream@0.1.0 </tspan>
<tspan x="10" y="4138">  │ │   └─┬ write-stream@0.4.3 </tspan>
<tspan x="10" y="4154">  │ │     └── readable-stream@0.0.4 </tspan>
<tspan x="10" y="4170">  │ ├─┬ leveldown@1.4.6 </tspan>
<tspan x="10" y="4186">  │ │ ├── nan@2.3.5 </tspan>
<tspan x="10" y="4202">  │ │ └─┬ prebuild@4.5.0 </tspan>
<tspan x="10" y="4218">  │ │   ├── async@1.5.2 </tspan>
<tspan x="10" y="4234">  │ │   ├─┬ execspawn@1.0.1 </tspan>
<tspan x="10" y="4250">  │ │   │ └── util-extend@1.0.3 </tspan>
<tspan x="10" y="4266">  │ │   ├─┬ ghreleases@1.0.5 </tspan>
<tspan x="10" y="4282">  │ │   │ ├── after@0.8.2 </tspan>
<tspan x="10" y="4298">  │ │   │ ├── ghrepos@2.0.0 </tspan>
<tspan x="10" y="4314">  │ │   │ ├─┬ ghutils@3.2.1 </tspan>
<tspan x="10" y="4330">  │ │   │ │ └─┬ jsonist@1.3.0 </tspan>
<tspan x="10" y="4346">  │ │   │ │   ├─┬ bl@1.0.3 </tspan>
<tspan x="10" y="4362">  │ │   │ │   │ └─┬ readable-stream@2.0.6 </tspan>
<tspan x="10" y="4378">  │ │   │ │   │   └── isarray@1.0.0 </tspan>
<tspan x="10" y="4394">  │ │   │ │   └─┬ hyperquest@1.2.0 </tspan>
<tspan x="10" y="4410">  │ │   │ │     ├── duplexer2@0.0.2 </tspan>
<tspan x="10" y="4426">  │ │   │ │     └─┬ through2@0.6.5 </tspan>
<tspan x="10" y="4442">  │ │   │ │       └── readable-stream@1.0.34 </tspan>
<tspan x="10" y="4458">  │ │   │ ├── simple-mime@0.1.0 </tspan>
<tspan x="10" y="4474">  │ │   │ └── url-template@2.0.8 </tspan>
<tspan x="10" y="4490">  │ │   ├── minimist@1.2.0 </tspan>
<tspan x="10" y="4506">  │ │   ├─┬ node-gyp@3.6.0 </tspan>
<tspan x="10" y="4522">  │ │   │ ├── fstream@1.0.11 </tspan>
<tspan x="10" y="4538">  │ │   │ ├─┬ glob@7.1.1 </tspan>
<tspan x="10" y="4554">  │ │   │ │ ├── fs.realpath@1.0.0 </tspan>
<tspan x="10" y="4570">  │ │   │ │ ├── inflight@1.0.6 </tspan>
<tspan x="10" y="4586">  │ │   │ │ └── path-is-absolute@1.0.1 </tspan>
<tspan x="10" y="4602">  │ │   │ ├── graceful-fs@4.1.11 </tspan>
<tspan x="10" y="4618">  │ │   │ ├─┬ minimatch@3.0.3 </tspan>
<tspan x="10" y="4634">  │ │   │ │ └─┬ brace-expansion@1.1.7 </tspan>
<tspan x="10" y="4650">  │ │   │ │   ├── balanced-match@0.4.2 </tspan>
<tspan x="10" y="4666">  │ │   │ │   └── concat-map@0.0.1 </tspan>
<tspan x="10" y="4682">  │ │   │ ├─┬ nopt@3.0.6 </tspan>
<tspan x="10" y="4698">  │ │   │ │ └── abbrev@1.1.0 </tspan>
<tspan x="10" y="4714">  │ │   │ ├─┬ osenv@0.1.4 </tspan>
<tspan x="10" y="4730">  │ │   │ │ └── os-tmpdir@1.0.2 </tspan>
<tspan x="10" y="4746">  │ │   │ ├─┬ rimraf@2.6.1 </tspan>
<tspan x="10" y="4762">  │ │   │ │ └── glob@7.1.1 </tspan>
<tspan x="10" y="4778">  │ │   │ ├─┬ tar@2.2.1 </tspan>
<tspan x="10" y="4794">  │ │   │ │ └── block-stream@0.0.9 </tspan>
<tspan x="10" y="4810">  │ │   │ └─┬ which@1.2.14 </tspan>
<tspan x="10" y="4826">  │ │   │   └── isexe@2.0.0 </tspan>
<tspan x="10" y="4842">  │ │   ├─┬ node-ninja@1.0.2 </tspan>
<tspan x="10" y="4858">  │ │   │ ├── glob@5.0.15 </tspan>
<tspan x="10" y="4874">  │ │   │ ├─┬ npmlog@2.0.4 </tspan>
<tspan x="10" y="4890">  │ │   │ │ └── gauge@1.2.7 </tspan>
<tspan x="10" y="4906">  │ │   │ └─┬ path-array@1.0.1 </tspan>
<tspan x="10" y="4922">  │ │   │   └─┬ array-index@1.0.0 </tspan>
<tspan x="10" y="4938">  │ │   │     └─┬ es6-symbol@3.1.1 </tspan>
<tspan x="10" y="4954">  │ │   │       ├── d@1.0.0 </tspan>
<tspan x="10" y="4970">  │ │   │       └─┬ es5-ext@0.10.15 </tspan>
<tspan x="10" y="4986">  │ │   │         └── es6-iterator@2.0.1 </tspan>
<tspan x="10" y="5002">  │ │   ├─┬ npmlog@2.0.4 </tspan>
<tspan x="10" y="5018">  │ │   │ ├── ansi@0.3.1 </tspan>
<tspan x="10" y="5034">  │ │   │ └─┬ gauge@1.2.7 </tspan>
<tspan x="10" y="5050">  │ │   │   ├── lodash.pad@4.5.1 </tspan>
<tspan x="10" y="5066">  │ │   │   ├── lodash.padend@4.6.1 </tspan>
<tspan x="10" y="5082">  │ │   │   └── lodash.padstart@4.6.1 </tspan>
<tspan x="10" y="5098">  │ │   └─┬ tar-stream@1.5.2 </tspan>
<tspan x="10" y="5114">  │ │     ├─┬ bl@1.2.0 </tspan>
<tspan x="10" y="5130">  │ │     │ └─┬ readable-stream@2.2.9 </tspan>
<tspan x="10" y="5146">  │ │     │   ├── isarray@1.0.0 </tspan>
<tspan x="10" y="5162">  │ │     │   └── string_decoder@1.0.0 </tspan>
<tspan x="10" y="5178">  │ │     └─┬ readable-stream@2.2.9 </tspan>
<tspan x="10" y="5194">  │ │       ├── isarray@1.0.0 </tspan>
<tspan x="10" y="5210">  │ │       └── string_decoder@1.0.0 </tspan>
<tspan x="10" y="5226">  │ ├─┬ levelup@1.3.2 </tspan>
<tspan x="10" y="5242">  │ │ ├── deferred-leveldown@1.2.1 </tspan>
<tspan x="10" y="5258">  │ │ ├── level-codec@6.1.0 </tspan>
<tspan x="10" y="5274">  │ │ ├── level-errors@1.0.4 </tspan>
<tspan x="10" y="5290">  │ │ ├── level-iterator-stream@1.3.1 </tspan>
<tspan x="10" y="5306">  │ │ ├── prr@1.0.1 </tspan>
<tspan x="10" y="5322">  │ │ └── semver@5.1.1 </tspan>
<tspan x="10" y="5338">  │ ├─┬ lie@3.0.4 </tspan>
<tspan x="10" y="5354">  │ │ ├─┬ es3ify@0.2.2 </tspan>
<tspan x="10" y="5370">  │ │ │ ├── esprima@2.7.3 </tspan>
<tspan x="10" y="5386">  │ │ │ └─┬ jstransform@11.0.3 </tspan>
<tspan x="10" y="5402">  │ │ │   ├── base62@1.1.2 </tspan>
<tspan x="10" y="5418">  │ │ │   ├─┬ commoner@0.10.8 </tspan>
<tspan x="10" y="5434">  │ │ │   │ ├─┬ detective@4.5.0 </tspan>
<tspan x="10" y="5450">  │ │ │   │ │ ├── acorn@4.0.11 </tspan>
<tspan x="10" y="5466">  │ │ │   │ │ └── defined@1.0.0 </tspan>
<tspan x="10" y="5482">  │ │ │   │ ├── q@1.5.0 </tspan>
<tspan x="10" y="5498">  │ │ │   │ └─┬ recast@0.11.23 </tspan>
<tspan x="10" y="5514">  │ │ │   │   ├── ast-types@0.9.6 </tspan>
<tspan x="10" y="5530">  │ │ │   │   ├── esprima@3.1.3 </tspan>
<tspan x="10" y="5546">  │ │ │   │   └── source-map@0.5.6 </tspan>
<tspan x="10" y="5562">  │ │ │   ├── esprima-fb@15001.1.0-dev-harmony-fb </tspan>
<tspan x="10" y="5578">  │ │ │   ├── object-assign@2.1.1 </tspan>
<tspan x="10" y="5594">  │ │ │   └── source-map@0.4.4 </tspan>
<tspan x="10" y="5610">  │ │ ├── immediate@3.0.6 </tspan>
<tspan x="10" y="5626">  │ │ ├─┬ inline-process-browser@1.0.0 </tspan>
<tspan x="10" y="5642">  │ │ │ ├─┬ falafel@1.2.0 </tspan>
<tspan x="10" y="5658">  │ │ │ │ ├── acorn@1.2.2 </tspan>
<tspan x="10" y="5674">  │ │ │ │ ├── foreach@2.0.5 </tspan>
<tspan x="10" y="5690">  │ │ │ │ └── object-keys@1.0.11 </tspan>
<tspan x="10" y="5706">  │ │ │ └─┬ through2@0.6.5 </tspan>
<tspan x="10" y="5722">  │ │ │   └── readable-stream@1.0.34 </tspan>
<tspan x="10" y="5738">  │ │ └─┬ unreachable-branch-transform@0.3.0 </tspan>
<tspan x="10" y="5754">  │ │   ├── esmangle-evaluator@1.0.1 </tspan>
<tspan x="10" y="5770">  │ │   ├─┬ recast@0.10.43 </tspan>
<tspan x="10" y="5786">  │ │   │ ├── ast-types@0.8.15 </tspan>
<tspan x="10" y="5802">  │ │   │ ├── esprima-fb@15001.1001.0-dev-harmony-fb </tspan>
<tspan x="10" y="5818">  │ │   │ ├── private@0.1.7 </tspan>
<tspan x="10" y="5834">  │ │   │ └── source-map@0.5.6 </tspan>
<tspan x="10" y="5850">  │ │   └─┬ through2@0.6.5 </tspan>
<tspan x="10" y="5866">  │ │     └── readable-stream@1.0.34 </tspan>
<tspan x="10" y="5882">  │ ├─┬ localstorage-down@0.6.6 </tspan>
<tspan x="10" y="5898">  │ │ ├─┬ abstract-leveldown@0.12.3 </tspan>
<tspan x="10" y="5914">  │ │ │ └── xtend@3.0.0 </tspan>
<tspan x="10" y="5930">  │ │ ├─┬ humble-localstorage@1.4.2 </tspan>
<tspan x="10" y="5946">  │ │ │ ├── has-localstorage@1.0.1 </tspan>
<tspan x="10" y="5962">  │ │ │ └── localstorage-memory@1.0.2 </tspan>
<tspan x="10" y="5978">  │ │ └── tiny-queue@0.2.0 </tspan>
<tspan x="10" y="5994">  │ ├─┬ memdown@1.1.2 </tspan>
<tspan x="10" y="6010">  │ │ ├── abstract-leveldown@2.4.1 </tspan>
<tspan x="10" y="6026">  │ │ ├── functional-red-black-tree@1.0.1 </tspan>
<tspan x="10" y="6042">  │ │ └── ltgt@1.0.2 </tspan>
<tspan x="10" y="6058">  │ ├── pouchdb-collate@1.2.0 </tspan>
<tspan x="10" y="6074">  │ ├── pouchdb-collections@1.0.1 </tspan>
<tspan x="10" y="6090">  │ ├─┬ request@2.72.0 </tspan>
<tspan x="10" y="6106">  │ │ ├── bl@1.1.2 </tspan>
<tspan x="10" y="6122">  │ │ ├── caseless@0.11.0 </tspan>
<tspan x="10" y="6138">  │ │ ├── extend@3.0.0 </tspan>
<tspan x="10" y="6154">  │ │ ├─┬ form-data@1.0.1 </tspan>
<tspan x="10" y="6170">  │ │ │ └─┬ async@2.3.0 </tspan>
<tspan x="10" y="6186">  │ │ │   └── lodash@4.17.4 </tspan>
<tspan x="10" y="6202">  │ │ ├─┬ har-validator@2.0.6 </tspan>
<tspan x="10" y="6218">  │ │ │ ├─┬ chalk@1.1.3 </tspan>
<tspan x="10" y="6234">  │ │ │ │ ├── ansi-styles@2.2.1 </tspan>
<tspan x="10" y="6250">  │ │ │ │ ├── escape-string-regexp@1.0.5 </tspan>
<tspan x="10" y="6266">  │ │ │ │ ├── has-ansi@2.0.0 </tspan>
<tspan x="10" y="6282">  │ │ │ │ └── supports-color@2.0.0 </tspan>
<tspan x="10" y="6298">  │ │ │ ├─┬ commander@2.9.0 </tspan>
<tspan x="10" y="6314">  │ │ │ │ └── graceful-readlink@1.0.1 </tspan>
<tspan x="10" y="6330">  │ │ │ ├─┬ is-my-json-valid@2.16.0 </tspan>
<tspan x="10" y="6346">  │ │ │ │ ├── generate-function@2.0.0 </tspan>
<tspan x="10" y="6362">  │ │ │ │ ├─┬ generate-object-property@1.2.0 </tspan>
<tspan x="10" y="6378">  │ │ │ │ │ └── is-property@1.0.2 </tspan>
<tspan x="10" y="6394">  │ │ │ │ └── jsonpointer@4.0.1 </tspan>
<tspan x="10" y="6410">  │ │ │ └─┬ pinkie-promise@2.0.1 </tspan>
<tspan x="10" y="6426">  │ │ │   └── pinkie@2.0.4 </tspan>
<tspan x="10" y="6442">  │ │ ├── qs@6.1.2 </tspan>
<tspan x="10" y="6458">  │ │ ├── tough-cookie@2.2.2 </tspan>
<tspan x="10" y="6474">  │ │ └── tunnel-agent@0.4.3 </tspan>
<tspan x="10" y="6490">  │ ├── scope-eval@0.0.3 </tspan>
<tspan x="10" y="6506">  │ ├── spark-md5@2.0.2 </tspan>
<tspan x="10" y="6522">  │ ├─┬ sublevel-pouchdb@1.0.1 </tspan>
<tspan x="10" y="6538">  │ │ ├─┬ errno@0.1.4 </tspan>
<tspan x="10" y="6554">  │ │ │ └── prr@0.0.0 </tspan>
<tspan x="10" y="6570">  │ │ ├── ltgt@2.1.2 </tspan>
<tspan x="10" y="6586">  │ │ ├─┬ pull-stream@2.21.0 </tspan>
<tspan x="10" y="6602">  │ │ │ └── pull-core@1.0.0 </tspan>
<tspan x="10" y="6618">  │ │ └── readable-stream@1.0.33 </tspan>
<tspan x="10" y="6634">  │ ├─┬ through2@2.0.1 </tspan>
<tspan x="10" y="6650">  │ │ └─┬ readable-stream@2.0.6 </tspan>
<tspan x="10" y="6666">  │ │   └── isarray@1.0.0 </tspan>
<tspan x="10" y="6682">  │ ├── vuvuzela@1.0.3 </tspan>
<tspan x="10" y="6698">  │ └─┬ websql@0.4.4 </tspan>
<tspan x="10" y="6714">  │   ├── immediate@3.2.3 </tspan>
<tspan x="10" y="6730">  │   ├── noop-fn@1.0.0 </tspan>
<tspan x="10" y="6746">  │   └─┬ sqlite3@3.1.8 </tspan>
<tspan x="10" y="6762">  │     ├── nan@2.4.0 </tspan>
<tspan x="10" y="6778">  │     └─┬ node-pre-gyp@0.6.31 </tspan>
<tspan x="10" y="6794">  │       ├─┬ mkdirp@0.5.1 </tspan>
<tspan x="10" y="6810">  │       │ └── minimist@0.0.8 </tspan>
<tspan x="10" y="6826">  │       ├─┬ nopt@3.0.6 </tspan>
<tspan x="10" y="6842">  │       │ └── abbrev@1.0.9 </tspan>
<tspan x="10" y="6858">  │       ├─┬ npmlog@4.0.0 </tspan>
<tspan x="10" y="6874">  │       │ ├─┬ are-we-there-yet@1.1.2 </tspan>
<tspan x="10" y="6890">  │       │ │ ├── delegates@1.0.0 </tspan>
<tspan x="10" y="6906">  │       │ │ └─┬ readable-stream@2.1.5 </tspan>
<tspan x="10" y="6922">  │       │ │   ├── buffer-shims@1.0.0 </tspan>
<tspan x="10" y="6938">  │       │ │   ├── core-util-is@1.0.2 </tspan>
<tspan x="10" y="6954">  │       │ │   ├── inherits@2.0.3 </tspan>
<tspan x="10" y="6970">  │       │ │   ├── isarray@1.0.0 </tspan>
<tspan x="10" y="6986">  │       │ │   ├── process-nextick-args@1.0.7 </tspan>
<tspan x="10" y="7002">  │       │ │   ├── string_decoder@0.10.31 </tspan>
<tspan x="10" y="7018">  │       │ │   └── util-deprecate@1.0.2 </tspan>
<tspan x="10" y="7034">  │       │ ├── console-control-strings@1.1.0 </tspan>
<tspan x="10" y="7050">  │       │ ├─┬ gauge@2.6.0 </tspan>
<tspan x="10" y="7066">  │       │ │ ├── aproba@1.0.4 </tspan>
<tspan x="10" y="7082">  │       │ │ ├── has-color@0.1.7 </tspan>
<tspan x="10" y="7098">  │       │ │ ├── has-unicode@2.0.1 </tspan>
<tspan x="10" y="7114">  │       │ │ ├── object-assign@4.1.0 </tspan>
<tspan x="10" y="7130">  │       │ │ ├── signal-exit@3.0.1 </tspan>
<tspan x="10" y="7146">  │       │ │ ├─┬ string-width@1.0.2 </tspan>
<tspan x="10" y="7162">  │       │ │ │ ├─┬ code-point-at@1.0.1 </tspan>
<tspan x="10" y="7178">  │       │ │ │ │ └── number-is-nan@1.0.1 </tspan>
<tspan x="10" y="7194">  │       │ │ │ └─┬ is-fullwidth-code-point@1.0.0 </tspan>
<tspan x="10" y="7210">  │       │ │ │   └── number-is-nan@1.0.1 </tspan>
<tspan x="10" y="7226">  │       │ │ ├─┬ strip-ansi@3.0.1 </tspan>
<tspan x="10" y="7242">  │       │ │ │ └── ansi-regex@2.0.0 </tspan>
<tspan x="10" y="7258">  │       │ │ └── wide-align@1.1.0 </tspan>
<tspan x="10" y="7274">  │       │ └── set-blocking@2.0.0 </tspan>
<tspan x="10" y="7290">  │       ├─┬ rc@1.1.6 </tspan>
<tspan x="10" y="7306">  │       │ ├── deep-extend@0.4.1 </tspan>
<tspan x="10" y="7322">  │       │ ├── ini@1.3.4 </tspan>
<tspan x="10" y="7338">  │       │ ├── minimist@1.2.0 </tspan>
<tspan x="10" y="7354">  │       │ └── strip-json-comments@1.0.4 </tspan>
<tspan x="10" y="7370">  │       ├─┬ request@2.76.0 </tspan>
<tspan x="10" y="7386">  │       │ ├── aws-sign2@0.6.0 </tspan>
<tspan x="10" y="7402">  │       │ ├── aws4@1.5.0 </tspan>
<tspan x="10" y="7418">  │       │ ├── caseless@0.11.0 </tspan>
<tspan x="10" y="7434">  │       │ ├─┬ combined-stream@1.0.5 </tspan>
<tspan x="10" y="7450">  │       │ │ └── delayed-stream@1.0.0 </tspan>
<tspan x="10" y="7466">  │       │ ├── extend@3.0.0 </tspan>
<tspan x="10" y="7482">  │       │ ├── forever-agent@0.6.1 </tspan>
<tspan x="10" y="7498">  │       │ ├─┬ form-data@2.1.1 </tspan>
<tspan x="10" y="7514">  │       │ │ └── asynckit@0.4.0 </tspan>
<tspan x="10" y="7530">  │       │ ├─┬ har-validator@2.0.6 </tspan>
<tspan x="10" y="7546">  │       │ │ ├─┬ chalk@1.1.3 </tspan>
<tspan x="10" y="7562">  │       │ │ │ ├── ansi-styles@2.2.1 </tspan>
<tspan x="10" y="7578">  │       │ │ │ ├── escape-string-regexp@1.0.5 </tspan>
<tspan x="10" y="7594">  │       │ │ │ ├─┬ has-ansi@2.0.0 </tspan>
<tspan x="10" y="7610">  │       │ │ │ │ └── ansi-regex@2.0.0 </tspan>
<tspan x="10" y="7626">  │       │ │ │ ├─┬ strip-ansi@3.0.1 </tspan>
<tspan x="10" y="7642">  │       │ │ │ │ └── ansi-regex@2.0.0 </tspan>
<tspan x="10" y="7658">  │       │ │ │ └── supports-color@2.0.0 </tspan>
<tspan x="10" y="7674">  │       │ │ ├─┬ commander@2.9.0 </tspan>
<tspan x="10" y="7690">  │       │ │ │ └── graceful-readlink@1.0.1 </tspan>
<tspan x="10" y="7706">  │       │ │ ├─┬ is-my-json-valid@2.15.0 </tspan>
<tspan x="10" y="7722">  │       │ │ │ ├── generate-function@2.0.0 </tspan>
<tspan x="10" y="7738">  │       │ │ │ ├─┬ generate-object-property@1.2.0 </tspan>
<tspan x="10" y="7754">  │       │ │ │ │ └── is-property@1.0.2 </tspan>
<tspan x="10" y="7770">  │       │ │ │ ├── jsonpointer@4.0.0 </tspan>
<tspan x="10" y="7786">  │       │ │ │ └── xtend@4.0.1 </tspan>
<tspan x="10" y="7802">  │       │ │ └─┬ pinkie-promise@2.0.1 </tspan>
<tspan x="10" y="7818">  │       │ │   └── pinkie@2.0.4 </tspan>
<tspan x="10" y="7834">  │       │ ├─┬ hawk@3.1.3 </tspan>
<tspan x="10" y="7850">  │       │ │ ├── boom@2.10.1 </tspan>
<tspan x="10" y="7866">  │       │ │ ├── cryptiles@2.0.5 </tspan>
<tspan x="10" y="7882">  │       │ │ ├── hoek@2.16.3 </tspan>
<tspan x="10" y="7898">  │       │ │ └── sntp@1.0.9 </tspan>
<tspan x="10" y="7914">  │       │ ├─┬ http-signature@1.1.1 </tspan>
<tspan x="10" y="7930">  │       │ │ ├── assert-plus@0.2.0 </tspan>
<tspan x="10" y="7946">  │       │ │ ├─┬ jsprim@1.3.1 </tspan>
<tspan x="10" y="7962">  │       │ │ │ ├── extsprintf@1.0.2 </tspan>
<tspan x="10" y="7978">  │       │ │ │ ├── json-schema@0.2.3 </tspan>
<tspan x="10" y="7994">  │       │ │ │ └── verror@1.3.6 </tspan>
<tspan x="10" y="8010">  │       │ │ └─┬ sshpk@1.10.1 </tspan>
<tspan x="10" y="8026">  │       │ │   ├── asn1@0.2.3 </tspan>
<tspan x="10" y="8042">  │       │ │   ├── assert-plus@1.0.0 </tspan>
<tspan x="10" y="8058">  │       │ │   ├── bcrypt-pbkdf@1.0.0 </tspan>
<tspan x="10" y="8074">  │       │ │   ├── dashdash@1.14.0 </tspan>
<tspan x="10" y="8090">  │       │ │   ├── ecc-jsbn@0.1.1 </tspan>
<tspan x="10" y="8106">  │       │ │   ├── getpass@0.1.6 </tspan>
<tspan x="10" y="8122">  │       │ │   ├── jodid25519@1.0.2 </tspan>
<tspan x="10" y="8138">  │       │ │   ├── jsbn@0.1.0 </tspan>
<tspan x="10" y="8154">  │       │ │   └── tweetnacl@0.14.3 </tspan>
<tspan x="10" y="8170">  │       │ ├── is-typedarray@1.0.0 </tspan>
<tspan x="10" y="8186">  │       │ ├── isstream@0.1.2 </tspan>
<tspan x="10" y="8202">  │       │ ├── json-stringify-safe@5.0.1 </tspan>
<tspan x="10" y="8218">  │       │ ├─┬ mime-types@2.1.12 </tspan>
<tspan x="10" y="8234">  │       │ │ └── mime-db@1.24.0 </tspan>
<tspan x="10" y="8250">  │       │ ├── node-uuid@1.4.7 </tspan>
<tspan x="10" y="8266">  │       │ ├── oauth-sign@0.8.2 </tspan>
<tspan x="10" y="8282">  │       │ ├── qs@6.3.0 </tspan>
<tspan x="10" y="8298">  │       │ ├── stringstream@0.0.5 </tspan>
<tspan x="10" y="8314">  │       │ ├─┬ tough-cookie@2.3.2 </tspan>
<tspan x="10" y="8330">  │       │ │ └── punycode@1.4.1 </tspan>
<tspan x="10" y="8346">  │       │ └── tunnel-agent@0.4.3 </tspan>
<tspan x="10" y="8362">  │       ├─┬ rimraf@2.5.4 </tspan>
<tspan x="10" y="8378">  │       │ └─┬ glob@7.1.1 </tspan>
<tspan x="10" y="8394">  │       │   ├── fs.realpath@1.0.0 </tspan>
<tspan x="10" y="8410">  │       │   ├─┬ inflight@1.0.6 </tspan>
<tspan x="10" y="8426">  │       │   │ └── wrappy@1.0.2 </tspan>
<tspan x="10" y="8442">  │       │   ├── inherits@2.0.3 </tspan>
<tspan x="10" y="8458">  │       │   ├─┬ minimatch@3.0.3 </tspan>
<tspan x="10" y="8474">  │       │   │ └─┬ brace-expansion@1.1.6 </tspan>
<tspan x="10" y="8490">  │       │   │   ├── balanced-match@0.4.2 </tspan>
<tspan x="10" y="8506">  │       │   │   └── concat-map@0.0.1 </tspan>
<tspan x="10" y="8522">  │       │   ├─┬ once@1.4.0 </tspan>
<tspan x="10" y="8538">  │       │   │ └── wrappy@1.0.2 </tspan>
<tspan x="10" y="8554">  │       │   └── path-is-absolute@1.0.1 </tspan>
<tspan x="10" y="8570">  │       ├── semver@5.3.0 </tspan>
<tspan x="10" y="8586">  │       ├─┬ tar@2.2.1 </tspan>
<tspan x="10" y="8602">  │       │ ├── block-stream@0.0.9 </tspan>
<tspan x="10" y="8618">  │       │ ├─┬ fstream@1.0.10 </tspan>
<tspan x="10" y="8634">  │       │ │ └── graceful-fs@4.1.9 </tspan>
<tspan x="10" y="8650">  │       │ └── inherits@2.0.3 </tspan>
<tspan x="10" y="8666">  │       └─┬ tar-pack@3.3.0 </tspan>
<tspan x="10" y="8682">  │         ├─┬ debug@2.2.0 </tspan>
<tspan x="10" y="8698">  │         │ └── ms@0.7.1 </tspan>
<tspan x="10" y="8714">  │         ├─┬ fstream@1.0.10 </tspan>
<tspan x="10" y="8730">  │         │ ├── graceful-fs@4.1.9 </tspan>
<tspan x="10" y="8746">  │         │ └── inherits@2.0.3 </tspan>
<tspan x="10" y="8762">  │         ├─┬ fstream-ignore@1.0.5 </tspan>
<tspan x="10" y="8778">  │         │ ├── inherits@2.0.3 </tspan>
<tspan x="10" y="8794">  │         │ └─┬ minimatch@3.0.3 </tspan>
<tspan x="10" y="8810">  │         │   └─┬ brace-expansion@1.1.6 </tspan>
<tspan x="10" y="8826">  │         │     ├── balanced-match@0.4.2 </tspan>
<tspan x="10" y="8842">  │         │     └── concat-map@0.0.1 </tspan>
<tspan x="10" y="8858">  │         ├─┬ once@1.3.3 </tspan>
<tspan x="10" y="8874">  │         │ └── wrappy@1.0.2 </tspan>
<tspan x="10" y="8890">  │         ├─┬ readable-stream@2.1.5 </tspan>
<tspan x="10" y="8906">  │         │ ├── buffer-shims@1.0.0 </tspan>
<tspan x="10" y="8922">  │         │ ├── core-util-is@1.0.2 </tspan>
<tspan x="10" y="8938">  │         │ ├── inherits@2.0.3 </tspan>
<tspan x="10" y="8954">  │         │ ├── isarray@1.0.0 </tspan>
<tspan x="10" y="8970">  │         │ ├── process-nextick-args@1.0.7 </tspan>
<tspan x="10" y="8986">  │         │ ├── string_decoder@0.10.31 </tspan>
<tspan x="10" y="9002">  │         │ └── util-deprecate@1.0.2 </tspan>
<tspan x="10" y="9018">  │         └── uid-number@0.0.6 </tspan>
<tspan x="10" y="9034">  ├─┬ request@2.81.0 </tspan>
<tspan x="10" y="9050">  │ ├── aws-sign2@0.6.0 </tspan>
<tspan x="10" y="9066">  │ ├── aws4@1.6.0 </tspan>
<tspan x="10" y="9082">  │ ├── caseless@0.12.0 </tspan>
<tspan x="10" y="9098">  │ ├─┬ combined-stream@1.0.5 </tspan>
<tspan x="10" y="9114">  │ │ └── delayed-stream@1.0.0 </tspan>
<tspan x="10" y="9130">  │ ├── extend@3.0.0 </tspan>
<tspan x="10" y="9146">  │ ├── forever-agent@0.6.1 </tspan>
<tspan x="10" y="9162">  │ ├─┬ form-data@2.1.4 </tspan>
<tspan x="10" y="9178">  │ │ └── asynckit@0.4.0 </tspan>
<tspan x="10" y="9194">  │ ├─┬ har-validator@4.2.1 </tspan>
<tspan x="10" y="9210">  │ │ ├─┬ ajv@4.11.7 </tspan>
<tspan x="10" y="9226">  │ │ │ ├── co@4.6.0 </tspan>
<tspan x="10" y="9242">  │ │ │ └─┬ json-stable-stringify@1.0.1 </tspan>
<tspan x="10" y="9258">  │ │ │   └── jsonify@0.0.0 </tspan>
<tspan x="10" y="9274">  │ │ └── har-schema@1.0.5 </tspan>
<tspan x="10" y="9290">  │ ├─┬ hawk@3.1.3 </tspan>
<tspan x="10" y="9306">  │ │ ├── boom@2.10.1 </tspan>
<tspan x="10" y="9322">  │ │ ├── cryptiles@2.0.5 </tspan>
<tspan x="10" y="9338">  │ │ ├── hoek@2.16.3 </tspan>
<tspan x="10" y="9354">  │ │ └── sntp@1.0.9 </tspan>
<tspan x="10" y="9370">  │ ├─┬ http-signature@1.1.1 </tspan>
<tspan x="10" y="9386">  │ │ ├── assert-plus@0.2.0 </tspan>
<tspan x="10" y="9402">  │ │ ├─┬ jsprim@1.4.0 </tspan>
<tspan x="10" y="9418">  │ │ │ ├── assert-plus@1.0.0 </tspan>
<tspan x="10" y="9434">  │ │ │ ├── extsprintf@1.0.2 </tspan>
<tspan x="10" y="9450">  │ │ │ ├── json-schema@0.2.3 </tspan>
<tspan x="10" y="9466">  │ │ │ └── verror@1.3.6 </tspan>
<tspan x="10" y="9482">  │ │ └─┬ sshpk@1.13.0 </tspan>
<tspan x="10" y="9498">  │ │   ├── asn1@0.2.3 </tspan>
<tspan x="10" y="9514">  │ │   ├── assert-plus@1.0.0 </tspan>
<tspan x="10" y="9530">  │ │   ├── bcrypt-pbkdf@1.0.1 </tspan>
<tspan x="10" y="9546">  │ │   ├─┬ dashdash@1.14.1 </tspan>
<tspan x="10" y="9562">  │ │   │ └── assert-plus@1.0.0 </tspan>
<tspan x="10" y="9578">  │ │   ├── ecc-jsbn@0.1.1 </tspan>
<tspan x="10" y="9594">  │ │   ├─┬ getpass@0.1.6 </tspan>
<tspan x="10" y="9610">  │ │   │ └── assert-plus@1.0.0 </tspan>
<tspan x="10" y="9626">  │ │   ├── jodid25519@1.0.2 </tspan>
<tspan x="10" y="9642">  │ │   ├── jsbn@0.1.1 </tspan>
<tspan x="10" y="9658">  │ │   └── tweetnacl@0.14.5 </tspan>
<tspan x="10" y="9674">  │ ├── is-typedarray@1.0.0 </tspan>
<tspan x="10" y="9690">  │ ├── isstream@0.1.2 </tspan>
<tspan x="10" y="9706">  │ ├── json-stringify-safe@5.0.1 </tspan>
<tspan x="10" y="9722">  │ ├── mime-types@2.1.15 </tspan>
<tspan x="10" y="9738">  │ ├── oauth-sign@0.8.2 </tspan>
<tspan x="10" y="9754">  │ ├── performance-now@0.2.0 </tspan>
<tspan x="10" y="9770">  │ ├── safe-buffer@5.0.1 </tspan>
<tspan x="10" y="9786">  │ ├── stringstream@0.0.5 </tspan>
<tspan x="10" y="9802">  │ ├─┬ tough-cookie@2.3.2 </tspan>
<tspan x="10" y="9818">  │ │ └── punycode@1.4.1 </tspan>
<tspan x="10" y="9834">  │ ├── tunnel-agent@0.6.0 </tspan>
<tspan x="10" y="9850">  │ └── uuid@3.0.1 </tspan>
<tspan x="10" y="9866">  ├── semver@5.3.0 </tspan>
<tspan x="10" y="9882">  ├─┬ serve-favicon@2.4.2 </tspan>
<tspan x="10" y="9898">  │ └── ms@1.0.0 </tspan>
<tspan x="10" y="9914">  ├─┬ through2@2.0.3 </tspan>
<tspan x="10" y="9930">  │ ├─┬ readable-stream@2.2.9 </tspan>
<tspan x="10" y="9946">  │ │ ├── buffer-shims@1.0.0 </tspan>
<tspan x="10" y="9962">  │ │ ├── core-util-is@1.0.2 </tspan>
<tspan x="10" y="9978">  │ │ ├── isarray@1.0.0 </tspan>
<tspan x="10" y="9994">  │ │ ├── process-nextick-args@1.0.7 </tspan>
<tspan x="10" y="10010">  │ │ ├── string_decoder@1.0.0 </tspan>
<tspan x="10" y="10026">  │ │ └── util-deprecate@1.0.2 </tspan>
<tspan x="10" y="10042">  │ └── xtend@4.0.1 </tspan>
<tspan x="10" y="10058">  └─┬ yargs@3.32.0 </tspan>
<tspan x="10" y="10074">    ├── camelcase@2.1.1 </tspan>
<tspan x="10" y="10090">    ├─┬ cliui@3.2.0 </tspan>
<tspan x="10" y="10106">    │ ├─┬ strip-ansi@3.0.1 </tspan>
<tspan x="10" y="10122">    │ │ └── ansi-regex@2.1.1 </tspan>
<tspan x="10" y="10138">    │ └── wrap-ansi@2.1.0 </tspan>
<tspan x="10" y="10154">    ├── decamelize@1.2.0 </tspan>
<tspan x="10" y="10170">    ├─┬ os-locale@1.4.0 </tspan>
<tspan x="10" y="10186">    │ └─┬ lcid@1.0.0 </tspan>
<tspan x="10" y="10202">    │   └── invert-kv@1.0.0 </tspan>
<tspan x="10" y="10218">    ├─┬ string-width@1.0.2 </tspan>
<tspan x="10" y="10234">    │ ├── code-point-at@1.1.0 </tspan>
<tspan x="10" y="10250">    │ └─┬ is-fullwidth-code-point@1.0.0 </tspan>
<tspan x="10" y="10266">    │   └── number-is-nan@1.0.1 </tspan>
<tspan x="10" y="10282">    ├── window-size@0.1.4 </tspan>
<tspan x="10" y="10298">    └── y18n@3.2.1</tspan>
</text>
</svg>
